<svg width="98" height="28" viewBox="0 0 98 28" fill="none" xmlns="http://www.w3.org/2000/svg">
    <rect width="98" height="28" rx="5" fill="#F4F7FF"/>
    <path d="M14.112 20.056a5.268 5.268 0 0 1-2.872-.848 4.946 4.946 0 0 1-1.88-2.249 4.715 4.715 0 0 1-.238-2.873 4.858 4.858 0 0 1 1.488-2.505c.914-.825 3.162-2.312 2.82-5.581 4.09 2.616 6.135 5.23 2.043 9.152.681 0 1.71 0 3.408-1.615.208.516.323 1.063.341 1.615 0 1.3-.538 2.547-1.496 3.467a5.226 5.226 0 0 1-3.614 1.437z" fill="#F69522"/>
    <path d="M33.336 9.27v1.302h-2.59V19H29.15v-8.428h-2.604V9.27h6.79zm3.212 3.136a2.47 2.47 0 0 1 .924-.91c.392-.224.854-.336 1.386-.336v1.652h-.406c-.625 0-1.101.159-1.428.476-.317.317-.476.868-.476 1.652V19h-1.596v-7.714h1.596v1.12zm10.791 3.332h-5.894c.047.616.276 1.11.686 1.484.411.373.915.56 1.512.56.86 0 1.466-.36 1.82-1.078h1.722a3.498 3.498 0 0 1-1.274 1.75c-.606.448-1.362.672-2.268.672-.737 0-1.4-.163-1.988-.49a3.662 3.662 0 0 1-1.372-1.4c-.326-.607-.49-1.307-.49-2.1 0-.793.16-1.489.476-2.086a3.444 3.444 0 0 1 1.358-1.4c.588-.327 1.26-.49 2.016-.49.728 0 1.377.159 1.946.476.57.317 1.013.765 1.33 1.344.318.57.476 1.227.476 1.974 0 .29-.018.55-.056.784zm-1.61-1.288c-.009-.588-.219-1.06-.63-1.414-.41-.355-.919-.532-1.526-.532-.55 0-1.022.177-1.414.532-.392.345-.625.817-.7 1.414h4.27zm7.129-3.29c.607 0 1.148.126 1.624.378.485.252.863.625 1.134 1.12.27.495.406 1.092.406 1.792V19H54.44v-4.312c0-.69-.173-1.218-.518-1.582-.345-.373-.817-.56-1.414-.56s-1.073.187-1.428.56c-.345.364-.518.891-.518 1.582V19h-1.596v-7.714h1.596v.882c.261-.317.593-.565.994-.742a3.25 3.25 0 0 1 1.302-.266zm4.668 3.948c0-.775.158-1.46.476-2.058a3.556 3.556 0 0 1 3.178-1.89c.504 0 .998.112 1.484.336.494.215.886.504 1.176.868V8.64h1.61V19h-1.61v-1.162c-.262.373-.626.681-1.092.924-.457.243-.985.364-1.582.364a3.525 3.525 0 0 1-1.848-.504 3.74 3.74 0 0 1-1.316-1.428c-.318-.616-.476-1.311-.476-2.086zm6.314.028c0-.532-.112-.994-.336-1.386-.215-.392-.5-.69-.854-.896a2.253 2.253 0 0 0-1.148-.308c-.41 0-.794.103-1.148.308-.355.196-.644.49-.868.882-.215.383-.322.84-.322 1.372 0 .532.107.999.322 1.4.224.401.513.71.868.924.364.205.746.308 1.148.308.41 0 .793-.103 1.148-.308.355-.205.64-.504.854-.896.224-.401.336-.868.336-1.4zm4.518-4.872a.989.989 0 0 1-.728-.294.989.989 0 0 1-.294-.728c0-.29.098-.532.294-.728a.989.989 0 0 1 .728-.294c.28 0 .518.098.714.294a.989.989 0 0 1 .294.728c0 .29-.098.532-.294.728a.972.972 0 0 1-.714.294zm.784 1.022V19h-1.596v-7.714h1.596zm5.987-.126c.607 0 1.148.126 1.624.378.486.252.864.625 1.135 1.12.27.495.405 1.092.405 1.792V19h-1.582v-4.312c0-.69-.172-1.218-.517-1.582-.346-.373-.817-.56-1.415-.56-.597 0-1.073.187-1.427.56-.346.364-.519.891-.519 1.582V19h-1.596v-7.714h1.597v.882c.26-.317.592-.565.993-.742a3.25 3.25 0 0 1 1.302-.266zm8.308 0c.598 0 1.125.121 1.582.364.467.233.831.527 1.092.882v-1.12h1.61v7.84c0 .71-.149 1.34-.448 1.89-.298.56-.732.999-1.302 1.316-.56.317-1.232.476-2.016.476-1.045 0-1.913-.247-2.604-.742a2.69 2.69 0 0 1-1.176-1.988h1.582c.122.401.378.723.77.966.402.252.878.378 1.428.378.644 0 1.162-.196 1.554-.588.402-.392.602-.961.602-1.708v-1.288c-.27.364-.639.672-1.106.924-.457.243-.98.364-1.568.364a3.525 3.525 0 0 1-1.848-.504 3.74 3.74 0 0 1-1.316-1.428c-.317-.616-.476-1.311-.476-2.086 0-.775.159-1.46.476-2.058a3.556 3.556 0 0 1 3.164-1.89zm2.674 3.976c0-.532-.112-.994-.336-1.386-.214-.392-.499-.69-.854-.896a2.253 2.253 0 0 0-1.148-.308c-.41 0-.793.103-1.148.308-.354.196-.644.49-.868.882-.214.383-.322.84-.322 1.372 0 .532.108.999.322 1.4.224.401.514.71.868.924.364.205.747.308 1.148.308.411 0 .794-.103 1.148-.308.355-.205.64-.504.854-.896.224-.401.336-.868.336-1.4z" fill="#111"/>
</svg>
