<svg width="114" height="28" viewBox="0 0 114 28" fill="none" xmlns="http://www.w3.org/2000/svg">
    <rect width="114" height="28" rx="4" fill="#F4F7FF"/>
    <path d="m32.104 19-2.24-3.892h-1.218V19H27.05V9.27h3.36c.747 0 1.377.13 1.89.392.523.261.91.611 1.162 1.05.261.439.392.929.392 1.47a2.92 2.92 0 0 1-.56 1.736c-.364.513-.929.863-1.694 1.05L34.008 19h-1.904zm-3.458-5.166h1.764c.597 0 1.045-.15 1.344-.448.308-.299.462-.7.462-1.204s-.15-.896-.448-1.176c-.299-.29-.751-.434-1.358-.434h-1.764v3.262zm14.264 1.904h-5.894c.046.616.275 1.11.686 1.484.41.373.914.56 1.512.56.858 0 1.465-.36 1.82-1.078h1.722a3.498 3.498 0 0 1-1.274 1.75c-.607.448-1.363.672-2.268.672-.738 0-1.4-.163-1.988-.49a3.662 3.662 0 0 1-1.372-1.4c-.327-.607-.49-1.307-.49-2.1 0-.793.158-1.489.476-2.086a3.444 3.444 0 0 1 1.358-1.4c.588-.327 1.26-.49 2.016-.49.728 0 1.376.159 1.946.476.569.317 1.012.765 1.33 1.344.317.57.476 1.227.476 1.974 0 .29-.019.55-.056.784zM41.3 14.45c-.01-.588-.22-1.06-.63-1.414-.411-.355-.92-.532-1.526-.532-.551 0-1.022.177-1.414.532-.392.345-.626.817-.7 1.414h4.27zm6.036 4.676a4.008 4.008 0 0 1-1.638-.322 2.96 2.96 0 0 1-1.134-.896 2.267 2.267 0 0 1-.448-1.274h1.652c.028.327.182.602.462.826.29.215.649.322 1.078.322.448 0 .794-.084 1.036-.252.252-.177.378-.401.378-.672 0-.29-.14-.504-.42-.644-.27-.14-.704-.294-1.302-.462a12.652 12.652 0 0 1-1.414-.462 2.538 2.538 0 0 1-.952-.686c-.261-.308-.392-.714-.392-1.218 0-.41.122-.784.364-1.12.243-.345.588-.616 1.036-.812.458-.196.98-.294 1.568-.294.878 0 1.582.224 2.114.672.542.439.831 1.04.868 1.806h-1.596a1.137 1.137 0 0 0-.42-.826c-.252-.205-.592-.308-1.022-.308-.42 0-.742.08-.966.238a.737.737 0 0 0-.336.63c0 .205.075.378.224.518.15.14.332.252.546.336.215.075.532.173.952.294.56.15 1.018.303 1.372.462.364.15.677.373.938.672.262.299.397.695.406 1.19 0 .439-.121.83-.364 1.176-.242.345-.588.616-1.036.812-.438.196-.956.294-1.554.294zm6.275-6.706c.27-.355.64-.653 1.106-.896a3.377 3.377 0 0 1 1.582-.364c.672 0 1.283.168 1.834.504.56.327.998.789 1.316 1.386.317.597.476 1.283.476 2.058 0 .775-.159 1.47-.476 2.086a3.601 3.601 0 0 1-1.316 1.428 3.452 3.452 0 0 1-1.834.504c-.588 0-1.11-.117-1.568-.35a3.598 3.598 0 0 1-1.12-.896v4.788h-1.596V11.286h1.596v1.134zm4.69 2.688c0-.532-.112-.99-.336-1.372a2.137 2.137 0 0 0-.868-.882 2.253 2.253 0 0 0-1.148-.308c-.401 0-.784.103-1.148.308a2.36 2.36 0 0 0-.868.896c-.215.392-.322.854-.322 1.386 0 .532.107.999.322 1.4.224.392.513.69.868.896.364.205.746.308 1.148.308.41 0 .793-.103 1.148-.308.364-.215.653-.523.868-.924.224-.401.336-.868.336-1.4zm6.548 4.018a3.995 3.995 0 0 1-1.974-.49 3.633 3.633 0 0 1-1.386-1.4c-.336-.607-.504-1.307-.504-2.1 0-.784.173-1.48.518-2.086a3.579 3.579 0 0 1 1.414-1.4 4.103 4.103 0 0 1 2.002-.49c.737 0 1.405.163 2.002.49a3.577 3.577 0 0 1 1.414 1.4c.346.607.518 1.302.518 2.086 0 .784-.177 1.48-.532 2.086a3.72 3.72 0 0 1-1.456 1.414 4.183 4.183 0 0 1-2.016.49zm0-1.386c.41 0 .793-.098 1.148-.294.364-.196.658-.49.882-.882.224-.392.336-.868.336-1.428 0-.56-.107-1.031-.322-1.414a2.163 2.163 0 0 0-.854-.882 2.335 2.335 0 0 0-1.148-.294c-.41 0-.793.098-1.148.294-.345.196-.62.49-.826.882-.205.383-.308.854-.308 1.414 0 .83.21 1.475.63 1.932.43.448.966.672 1.61.672zm9.474-6.58c.607 0 1.148.126 1.624.378.485.252.863.625 1.134 1.12.27.495.406 1.092.406 1.792V19h-1.582v-4.312c0-.69-.173-1.218-.518-1.582-.346-.373-.817-.56-1.414-.56s-1.073.187-1.428.56c-.346.364-.518.891-.518 1.582V19H70.43v-7.714h1.596v.882c.261-.317.593-.565.994-.742a3.25 3.25 0 0 1 1.302-.266zm8 7.966a4.007 4.007 0 0 1-1.638-.322 2.96 2.96 0 0 1-1.134-.896 2.266 2.266 0 0 1-.448-1.274h1.652c.028.327.182.602.462.826.289.215.648.322 1.078.322.448 0 .793-.084 1.036-.252.252-.177.378-.401.378-.672 0-.29-.14-.504-.42-.644-.271-.14-.705-.294-1.302-.462a12.645 12.645 0 0 1-1.414-.462 2.537 2.537 0 0 1-.952-.686c-.262-.308-.392-.714-.392-1.218 0-.41.121-.784.364-1.12.242-.345.588-.616 1.036-.812.457-.196.98-.294 1.568-.294.877 0 1.582.224 2.114.672.541.439.83 1.04.868 1.806h-1.596a1.137 1.137 0 0 0-.42-.826c-.252-.205-.593-.308-1.022-.308-.42 0-.742.08-.966.238a.737.737 0 0 0-.336.63c0 .205.074.378.224.518.149.14.331.252.546.336.214.075.532.173.952.294.56.15 1.017.303 1.372.462.364.15.676.373.938.672.261.299.396.695.406 1.19 0 .439-.122.83-.364 1.176-.243.345-.588.616-1.036.812-.439.196-.957.294-1.554.294zm5.49-8.862a.989.989 0 0 1-.728-.294.989.989 0 0 1-.294-.728c0-.29.098-.532.294-.728a.989.989 0 0 1 .728-.294c.28 0 .518.098.714.294a.989.989 0 0 1 .294.728c0 .29-.098.532-.294.728a.972.972 0 0 1-.714.294zm.784 1.022V19h-1.596v-7.714h1.596zm5.078 6.286 2.184-6.286h1.694L94.613 19h-1.904l-2.926-7.714h1.708l2.184 6.286zm12.098-1.834h-5.894c.047.616.275 1.11.686 1.484.411.373.915.56 1.512.56.859 0 1.465-.36 1.82-1.078h1.722a3.496 3.496 0 0 1-1.274 1.75c-.607.448-1.363.672-2.268.672-.737 0-1.4-.163-1.988-.49a3.662 3.662 0 0 1-1.372-1.4c-.327-.607-.49-1.307-.49-2.1 0-.793.159-1.489.476-2.086a3.444 3.444 0 0 1 1.358-1.4c.588-.327 1.26-.49 2.016-.49.728 0 1.377.159 1.946.476a3.351 3.351 0 0 1 1.33 1.344c.317.57.476 1.227.476 1.974 0 .29-.019.55-.056.784zm-1.61-1.288c-.009-.588-.219-1.06-.63-1.414-.411-.355-.919-.532-1.526-.532-.551 0-1.022.177-1.414.532-.392.345-.625.817-.7 1.414h4.27z" fill="#111"/>
    <path d="M9.54 15.524h4.251a.54.54 0 0 1 .524.67l-.783 3.134a.54.54 0 0 0 .94.477l5.37-6.448a.541.541 0 0 0-.415-.886h-4.251a.54.54 0 0 1-.525-.668l.783-3.132a.54.54 0 0 0-.938-.478l-5.37 6.444a.54.54 0 0 0 .415.886z" fill="#F69522"/>
</svg>
