<svg width="112" height="28" viewBox="0 0 112 28" fill="none" xmlns="http://www.w3.org/2000/svg">
    <rect width="112" height="28" rx="4" fill="#F4F7FF"/>
    <path d="M18.593 20a.9.9 0 0 1-.64-.266l-2.796-2.796a4.895 4.895 0 1 1 1.281-1.281l2.796 2.795a.905.905 0 0 1-.64 1.547zM12.411 9.84a3.07 3.07 0 1 0 0 6.139 3.07 3.07 0 0 0 0-6.139z" fill="#F69522"/>
    <path d="M31.836 8.77v1.302h-2.59V18.5H27.65v-8.428h-2.604V8.77h6.79zm4.962 9.856a3.995 3.995 0 0 1-1.974-.49 3.633 3.633 0 0 1-1.386-1.4c-.336-.607-.504-1.307-.504-2.1 0-.784.173-1.48.518-2.086a3.579 3.579 0 0 1 1.414-1.4 4.103 4.103 0 0 1 2.002-.49c.738 0 1.405.163 2.002.49a3.577 3.577 0 0 1 1.414 1.4c.346.607.518 1.302.518 2.086 0 .784-.177 1.48-.532 2.086a3.72 3.72 0 0 1-1.456 1.414 4.183 4.183 0 0 1-2.016.49zm0-1.386c.411 0 .794-.098 1.148-.294.364-.196.658-.49.882-.882.224-.392.336-.868.336-1.428 0-.56-.107-1.031-.322-1.414a2.163 2.163 0 0 0-.854-.882 2.335 2.335 0 0 0-1.148-.294c-.41 0-.793.098-1.148.294-.345.196-.62.49-.826.882-.205.383-.308.854-.308 1.414 0 .83.21 1.475.63 1.932.43.448.966.672 1.61.672zm7.178-5.32c.27-.355.64-.653 1.106-.896a3.377 3.377 0 0 1 1.582-.364c.672 0 1.283.168 1.834.504.56.327.999.789 1.316 1.386.317.597.476 1.283.476 2.058 0 .775-.159 1.47-.476 2.086a3.602 3.602 0 0 1-1.316 1.428 3.452 3.452 0 0 1-1.834.504c-.588 0-1.11-.117-1.568-.35a3.595 3.595 0 0 1-1.12-.896v4.788H42.38V10.786h1.596v1.134zm4.69 2.688c0-.532-.112-.99-.336-1.372a2.138 2.138 0 0 0-.868-.882 2.253 2.253 0 0 0-1.148-.308c-.401 0-.784.103-1.148.308a2.359 2.359 0 0 0-.868.896c-.215.392-.322.854-.322 1.386 0 .532.107.999.322 1.4.224.392.513.69.868.896.364.205.747.308 1.148.308.41 0 .793-.103 1.148-.308.364-.215.653-.523.868-.924.224-.401.336-.868.336-1.4zm10.045 3.99c-.653 0-1.241-.112-1.764-.336-.523-.233-.933-.56-1.232-.98-.299-.42-.448-.91-.448-1.47h1.708c.037.42.2.765.49 1.036.299.27.714.406 1.246.406.55 0 .98-.13 1.288-.392.308-.27.462-.616.462-1.036 0-.327-.098-.593-.294-.798a1.848 1.848 0 0 0-.714-.476c-.28-.112-.672-.233-1.176-.364a12.24 12.24 0 0 1-1.554-.504 2.63 2.63 0 0 1-1.008-.812c-.28-.364-.42-.85-.42-1.456 0-.56.14-1.05.42-1.47.28-.42.672-.742 1.176-.966.504-.224 1.087-.336 1.75-.336.943 0 1.713.238 2.31.714.607.467.943 1.11 1.008 1.932h-1.764c-.028-.355-.196-.658-.504-.91s-.714-.378-1.218-.378c-.457 0-.83.117-1.12.35-.29.233-.434.57-.434 1.008 0 .299.089.546.266.742.187.187.42.336.7.448.28.112.663.233 1.148.364.644.177 1.167.355 1.568.532.41.177.756.453 1.036.826.29.364.434.854.434 1.47 0 .495-.135.961-.406 1.4-.261.439-.649.793-1.162 1.064-.504.261-1.101.392-1.792.392zm12.257-3.36h-5.894c.047.616.276 1.11.686 1.484.411.373.915.56 1.512.56.859 0 1.466-.36 1.82-1.078h1.722a3.498 3.498 0 0 1-1.274 1.75c-.606.448-1.362.672-2.268.672-.737 0-1.4-.163-1.988-.49a3.662 3.662 0 0 1-1.372-1.4c-.326-.607-.49-1.307-.49-2.1 0-.793.159-1.489.476-2.086a3.444 3.444 0 0 1 1.358-1.4c.588-.327 1.26-.49 2.016-.49.728 0 1.377.159 1.946.476.57.317 1.013.765 1.33 1.344.318.57.476 1.227.476 1.974 0 .29-.018.55-.056.784zm-1.61-1.288c-.009-.588-.219-1.06-.63-1.414-.41-.355-.919-.532-1.526-.532-.55 0-1.022.177-1.414.532-.392.345-.625.817-.7 1.414h4.27zm2.705.658c0-.775.159-1.46.476-2.058a3.556 3.556 0 0 1 3.164-1.89c.607 0 1.134.121 1.582.364.457.233.821.527 1.092.882v-1.12h1.61V18.5h-1.61v-1.148c-.27.364-.64.667-1.106.91-.467.243-.999.364-1.596.364-.663 0-1.27-.168-1.82-.504a3.74 3.74 0 0 1-1.316-1.428c-.317-.616-.476-1.311-.476-2.086zm6.314.028c0-.532-.112-.994-.336-1.386a2.26 2.26 0 0 0-.854-.896 2.253 2.253 0 0 0-1.148-.308c-.41 0-.793.103-1.148.308-.355.196-.644.49-.868.882-.215.383-.322.84-.322 1.372 0 .532.107.999.322 1.4.224.401.513.71.868.924.364.205.747.308 1.148.308.41 0 .793-.103 1.148-.308a2.26 2.26 0 0 0 .854-.896c.224-.401.336-.868.336-1.4zm5.302-2.73c.233-.392.541-.695.924-.91.392-.224.854-.336 1.386-.336v1.652h-.406c-.625 0-1.101.159-1.428.476-.317.317-.476.868-.476 1.652v4.06h-1.596v-7.714h1.596v1.12zm3.245 2.73c0-.793.159-1.489.476-2.086a3.47 3.47 0 0 1 1.344-1.4c.57-.327 1.223-.49 1.96-.49.934 0 1.704.224 2.31.672.616.439 1.032 1.069 1.246 1.89h-1.722a1.821 1.821 0 0 0-.672-.896c-.308-.215-.695-.322-1.162-.322-.653 0-1.176.233-1.568.7-.382.457-.574 1.101-.574 1.932 0 .83.192 1.48.574 1.946.392.467.915.7 1.568.7.924 0 1.536-.406 1.834-1.218h1.722c-.224.784-.644 1.41-1.26 1.876-.616.457-1.381.686-2.296.686-.737 0-1.39-.163-1.96-.49a3.592 3.592 0 0 1-1.344-1.4c-.317-.607-.476-1.307-.476-2.1zm12.917-3.976c.588 0 1.11.126 1.568.378.466.252.83.625 1.092 1.12.27.495.406 1.092.406 1.792v4.55h-1.582v-4.312c0-.69-.173-1.218-.518-1.582-.346-.373-.817-.56-1.414-.56-.598 0-1.074.187-1.428.56-.346.364-.518.891-.518 1.582V18.5H95.85V8.14h1.596v3.542c.27-.327.611-.579 1.022-.756.42-.177.877-.266 1.372-.266z" fill="#111"/>
</svg>
