<svg width="107" height="28" viewBox="0 0 107 28" fill="none" xmlns="http://www.w3.org/2000/svg">
    <rect width="107" height="28" rx="4" fill="#F4F7FF"/>
    <path d="M35.336 10.27v1.302h-2.59V20H31.15v-8.428h-2.604V10.27h6.79zm4.962 9.856a3.995 3.995 0 0 1-1.974-.49 3.633 3.633 0 0 1-1.386-1.4c-.336-.607-.504-1.307-.504-2.1 0-.784.173-1.48.518-2.086a3.579 3.579 0 0 1 1.414-1.4 4.103 4.103 0 0 1 2.002-.49c.738 0 1.405.163 2.002.49a3.577 3.577 0 0 1 1.414 1.4c.346.607.518 1.302.518 2.086 0 .784-.177 1.48-.532 2.086a3.72 3.72 0 0 1-1.456 1.414 4.183 4.183 0 0 1-2.016.49zm0-1.386c.411 0 .794-.098 1.148-.294.364-.196.658-.49.882-.882.224-.392.336-.868.336-1.428 0-.56-.107-1.031-.322-1.414a2.163 2.163 0 0 0-.854-.882 2.335 2.335 0 0 0-1.148-.294c-.41 0-.793.098-1.148.294-.345.196-.62.49-.826.882-.205.383-.308.854-.308 1.414 0 .83.21 1.475.63 1.932.43.448.966.672 1.61.672zm7.178-5.32c.27-.355.64-.653 1.106-.896a3.377 3.377 0 0 1 1.582-.364c.672 0 1.283.168 1.834.504.56.327.999.789 1.316 1.386.317.597.476 1.283.476 2.058 0 .775-.159 1.47-.476 2.086a3.602 3.602 0 0 1-1.316 1.428 3.452 3.452 0 0 1-1.834.504c-.588 0-1.11-.117-1.568-.35a3.595 3.595 0 0 1-1.12-.896v4.788H45.88V12.286h1.596v1.134zm4.69 2.688c0-.532-.112-.99-.336-1.372a2.138 2.138 0 0 0-.868-.882 2.253 2.253 0 0 0-1.148-.308c-.401 0-.784.103-1.148.308a2.359 2.359 0 0 0-.868.896c-.215.392-.322.854-.322 1.386 0 .532.107.999.322 1.4.224.392.513.69.868.896.364.205.747.308 1.148.308.41 0 .793-.103 1.148-.308.364-.215.653-.523.868-.924.224-.401.336-.868.336-1.4zM64.06 20l-2.24-3.892h-1.218V20h-1.596v-9.73h3.36c.747 0 1.377.13 1.89.392.523.261.91.611 1.162 1.05.261.439.392.929.392 1.47a2.92 2.92 0 0 1-.56 1.736c-.364.513-.929.863-1.694 1.05L65.963 20H64.06zm-3.458-5.166h1.764c.597 0 1.045-.15 1.344-.448.308-.299.462-.7.462-1.204s-.15-.896-.448-1.176c-.299-.29-.751-.434-1.358-.434h-1.764v3.262zm6.718 1.274c0-.775.158-1.46.476-2.058a3.555 3.555 0 0 1 3.164-1.89c.606 0 1.134.121 1.582.364.457.233.821.527 1.092.882v-1.12h1.61V20h-1.61v-1.148c-.27.364-.64.667-1.106.91-.467.243-.999.364-1.596.364-.663 0-1.27-.168-1.82-.504a3.74 3.74 0 0 1-1.316-1.428c-.318-.616-.476-1.311-.476-2.086zm6.314.028c0-.532-.112-.994-.336-1.386-.215-.392-.5-.69-.854-.896a2.253 2.253 0 0 0-1.148-.308c-.41 0-.794.103-1.148.308-.355.196-.644.49-.868.882-.215.383-.322.84-.322 1.372 0 .532.107.999.322 1.4.224.401.513.71.868.924.364.205.746.308 1.148.308.41 0 .793-.103 1.148-.308.354-.205.64-.504.854-.896.224-.401.336-.868.336-1.4zm5.568-2.548v4.27c0 .29.065.5.196.63.14.121.373.182.7.182h.98V20h-1.26c-.719 0-1.27-.168-1.652-.504-.383-.336-.574-.882-.574-1.638v-4.27h-.91v-1.302h.91v-1.918h1.61v1.918h1.876v1.302h-1.876zm10.361 3.15h-5.894c.047.616.275 1.11.686 1.484.41.373.915.56 1.512.56.859 0 1.465-.36 1.82-1.078h1.722a3.498 3.498 0 0 1-1.274 1.75c-.607.448-1.363.672-2.268.672-.737 0-1.4-.163-1.988-.49a3.663 3.663 0 0 1-1.372-1.4c-.327-.607-.49-1.307-.49-2.1 0-.793.159-1.489.476-2.086a3.445 3.445 0 0 1 1.358-1.4c.588-.327 1.26-.49 2.016-.49.728 0 1.377.159 1.946.476a3.35 3.35 0 0 1 1.33 1.344c.317.57.476 1.227.476 1.974 0 .29-.019.55-.056.784zm-1.61-1.288c-.01-.588-.22-1.06-.63-1.414-.41-.355-.92-.532-1.526-.532-.55 0-1.022.177-1.414.532-.392.345-.625.817-.7 1.414h4.27zm2.705.658c0-.775.158-1.46.476-2.058a3.555 3.555 0 0 1 3.178-1.89c.504 0 .998.112 1.484.336.494.215.886.504 1.176.868V9.64h1.61V20h-1.61v-1.162c-.262.373-.626.681-1.092.924-.458.243-.985.364-1.582.364a3.525 3.525 0 0 1-1.848-.504 3.74 3.74 0 0 1-1.316-1.428c-.318-.616-.476-1.311-.476-2.086zm6.314.028c0-.532-.112-.994-.336-1.386-.215-.392-.5-.69-.854-.896a2.253 2.253 0 0 0-1.148-.308c-.411 0-.794.103-1.148.308-.355.196-.644.49-.868.882-.215.383-.322.84-.322 1.372 0 .532.107.999.322 1.4.224.401.513.71.868.924.364.205.746.308 1.148.308.41 0 .793-.103 1.148-.308.354-.205.639-.504.854-.896.224-.401.336-.868.336-1.4z" fill="#111"/>
    <path d="M22.484 12.533a.663.663 0 0 0-.572-.461l-3.613-.324-1.428-3.343a.664.664 0 0 0-1.224 0l-1.428 3.343-3.614.328a.666.666 0 0 0-.378 1.164l2.731 2.4-.805 3.546a.665.665 0 0 0 .99.72l3.115-1.863 3.115 1.863a.667.667 0 0 0 .99-.72l-.804-3.551 2.73-2.4a.666.666 0 0 0 .195-.702z" fill="#F69522"/>
</svg>
