<svg width="91" height="28" viewBox="0 0 91 28" fill="none" xmlns="http://www.w3.org/2000/svg">
    <rect width="91" height="28" rx="4" fill="#F4F7FF"/>
    <path d="M19.36 8.547h-8.728A1.636 1.636 0 0 0 9 10.183v7.634a1.636 1.636 0 0 0 1.636 1.636h8.728A1.636 1.636 0 0 0 21 17.817v-7.634a1.636 1.636 0 0 0-1.64-1.636zM18.815 14a.545.545 0 0 1-1.091 0v-.306L16.3 15.14a1.09 1.09 0 0 1-1.52.032l-.873-.818-1.81 1.68a.546.546 0 0 1-.747-.796l1.81-1.678a1.09 1.09 0 0 1 1.489 0l.872.818 1.45-1.466h-.335a.545.545 0 1 1 0-1.091h1.633a.545.545 0 0 1 .545.545V14z" fill="#F69522"/>
    <path d="M34.854 11.668c0 .495-.117.961-.35 1.4-.233.439-.607.798-1.12 1.078-.513.27-1.171.406-1.974.406h-1.764V18.5H28.05V8.77h3.36c.747 0 1.377.13 1.89.392.523.252.91.597 1.162 1.036.261.439.392.929.392 1.47zM31.41 13.25c.607 0 1.06-.135 1.358-.406.299-.28.448-.672.448-1.176 0-1.064-.602-1.596-1.806-1.596h-1.764v3.178h1.764zm8.312 5.376a3.995 3.995 0 0 1-1.974-.49 3.633 3.633 0 0 1-1.386-1.4c-.336-.607-.504-1.307-.504-2.1 0-.784.173-1.48.518-2.086a3.577 3.577 0 0 1 1.414-1.4 4.102 4.102 0 0 1 2.002-.49c.737 0 1.405.163 2.002.49a3.579 3.579 0 0 1 1.414 1.4c.346.607.518 1.302.518 2.086 0 .784-.177 1.48-.532 2.086a3.72 3.72 0 0 1-1.456 1.414 4.183 4.183 0 0 1-2.016.49zm0-1.386c.41 0 .794-.098 1.148-.294.364-.196.658-.49.882-.882.224-.392.336-.868.336-1.428 0-.56-.107-1.031-.322-1.414a2.164 2.164 0 0 0-.854-.882 2.336 2.336 0 0 0-1.148-.294c-.41 0-.793.098-1.148.294-.345.196-.62.49-.826.882-.205.383-.308.854-.308 1.414 0 .83.21 1.475.63 1.932.43.448.966.672 1.61.672zm7.178-5.32c.27-.355.64-.653 1.106-.896a3.377 3.377 0 0 1 1.582-.364c.672 0 1.283.168 1.834.504.56.327.999.789 1.316 1.386.317.597.476 1.283.476 2.058 0 .775-.159 1.47-.476 2.086a3.601 3.601 0 0 1-1.316 1.428 3.452 3.452 0 0 1-1.834.504c-.588 0-1.11-.117-1.568-.35a3.597 3.597 0 0 1-1.12-.896v4.788h-1.596V10.786H46.9v1.134zm4.69 2.688c0-.532-.112-.99-.336-1.372a2.138 2.138 0 0 0-.868-.882 2.253 2.253 0 0 0-1.148-.308c-.401 0-.784.103-1.148.308a2.359 2.359 0 0 0-.868.896c-.215.392-.322.854-.322 1.386 0 .532.107.999.322 1.4.224.392.513.69.868.896.364.205.747.308 1.148.308.41 0 .793-.103 1.148-.308.364-.215.653-.523.868-.924.224-.401.336-.868.336-1.4zm10.188-3.822V18.5h-1.596v-.91c-.252.317-.583.57-.994.756-.401.177-.83.266-1.288.266a3.501 3.501 0 0 1-1.638-.378 2.786 2.786 0 0 1-1.134-1.12c-.27-.495-.406-1.092-.406-1.792v-4.536h1.582v4.298c0 .69.173 1.223.518 1.596.345.364.817.546 1.414.546.598 0 1.069-.182 1.414-.546.355-.373.532-.905.532-1.596v-4.298h1.596zM65.48 8.14V18.5h-1.596V8.14h1.596zm1.563 6.468c0-.775.16-1.46.476-2.058a3.556 3.556 0 0 1 3.164-1.89c.607 0 1.134.121 1.582.364.458.233.822.527 1.092.882v-1.12h1.61V18.5h-1.61v-1.148c-.27.364-.639.667-1.106.91-.466.243-.998.364-1.596.364-.662 0-1.269-.168-1.82-.504a3.74 3.74 0 0 1-1.316-1.428c-.317-.616-.476-1.311-.476-2.086zm6.314.028c0-.532-.112-.994-.336-1.386-.214-.392-.499-.69-.854-.896a2.253 2.253 0 0 0-1.148-.308c-.41 0-.793.103-1.148.308-.354.196-.644.49-.868.882-.214.383-.322.84-.322 1.372 0 .532.108.999.322 1.4.224.401.514.71.868.924.364.205.747.308 1.148.308.411 0 .794-.103 1.148-.308.355-.205.64-.504.854-.896.224-.401.336-.868.336-1.4zm5.303-2.73c.233-.392.541-.695.924-.91.392-.224.854-.336 1.386-.336v1.652h-.406c-.626 0-1.102.159-1.428.476-.318.317-.476.868-.476 1.652v4.06h-1.596v-7.714h1.596v1.12z" fill="#111"/>
</svg>
