<?xml version="1.0" encoding="utf-8"?>
<!-- Generator: Adobe Illustrator 28.1.0, SVG Export Plug-In . SVG Version: 6.00 Build 0)  -->
<svg version="1.2" baseProfile="tiny" id="Layer_1" xmlns="http://www.w3.org/2000/svg" xmlns:xlink="http://www.w3.org/1999/xlink"
	 x="0px" y="0px" width="121px" height="127px" viewBox="0 0 121 127" overflow="visible" xml:space="preserve">
<path fill="#1E32FA" d="M61.22,67.38c2.22-1.81,4.27-4.25,5.59-6.87c-1.81-0.58-3.72-0.99-5.59-0.99
	C61.22,59.52,61.22,67.38,61.22,67.38z M59.84,67.32c-2.29-1.74-4.33-4.18-5.65-6.8c1.8-0.64,3.72-0.99,5.65-0.99V67.32z
	 M61.22,32.23c2.22,1.8,4.27,4.18,5.59,6.81c-1.81,0.63-3.72,1.05-5.59,1.05C61.22,40.09,61.22,32.23,61.22,32.23z M59.84,32.23
	c-2.29,1.8-4.33,4.25-5.65,6.81c1.8,0.58,3.72,1.05,5.65,1.05V32.23z M61.22,58.13v-7.69h8.35c0,3.09-0.78,6.11-2.1,8.91
	C65.55,58.66,63.26,58.18,61.22,58.13z M79.43,50.44h-8.41c-0.12,3.38-0.85,6.41-2.22,9.43c1.8,0.82,3.41,1.8,4.98,3.08
	C77.21,59.58,79.24,55.1,79.43,50.44z M72.76,63.83c-1.32-1.11-3.01-2.16-4.63-2.79c-1.5,2.73-3.36,5-5.71,7.04
	C66.21,67.61,69.75,66.22,72.76,63.83z M59.84,58.13v-7.69h-8.4c0.05,3.09,0.77,6.17,2.1,8.91C55.51,58.66,57.68,58.18,59.84,58.13z
	 M41.57,50.44h8.42c0.18,3.38,0.9,6.34,2.29,9.43c-1.87,0.82-3.49,1.8-5.05,3.08C43.79,59.58,41.82,55.21,41.57,50.44z M48.24,63.83
	c1.39-1.05,3-2.21,4.63-2.79c1.5,2.73,3.36,5,5.71,7.04C54.79,67.61,51.19,66.22,48.24,63.83z M61.22,41.42v7.69h8.35
	c0-3.09-0.78-6.05-2.1-8.91C65.5,40.9,63.32,41.36,61.22,41.42z M79.43,49.1h-8.41c-0.12-3.32-0.9-6.4-2.22-9.37
	c1.8-0.82,3.48-1.87,4.98-3.09C77.38,40.13,79.24,44.51,79.43,49.1z M72.76,35.72c-1.38,1.17-3.01,2.21-4.63,2.85
	c-1.5-2.8-3.36-5.01-5.71-7.1C66.21,31.94,69.75,33.34,72.76,35.72z M59.84,41.42v7.69h-8.4c0.05-3.03,0.77-6.11,2.1-8.91
	C55.51,40.9,57.68,41.36,59.84,41.42z M41.57,49.1h8.42c0.18-3.38,0.9-6.34,2.29-9.37c-1.87-0.82-3.49-1.81-5.05-3.09
	C43.73,40.03,41.82,44.39,41.57,49.1z M48.24,35.72c1.39,1.17,2.95,2.21,4.63,2.85c1.44-2.74,3.42-5.06,5.71-7.1
	C54.79,31.94,51.24,33.34,48.24,35.72z M0,55.91h37.78c1.39,6.75,6.19,12.34,15.75,16.24c-1.09,3.2-4.81,6.16-8.66,6.16H24.4
	c-3.14,0-5.59-2.57-6.61-4.6h20.84c1.27-0.22,1.33-1.21,0.06-1.33H18.2c-2.64,0-5.05-2.22-6.43-4.6h23.85c1.2-0.18,1.2-1.17,0-1.34
	H11.59c-2.4,0-4.62-2.73-5.53-4.59h26.38c1.32-0.18,1.32-1.34,0-1.4H5.58C3.48,60.45,1.44,58.24,0,55.91z M121,55.91H83.21
	c-1.38,6.75-6.19,12.34-15.74,16.24c1.08,3.2,4.8,6.16,8.65,6.16h20.49c3.13,0,5.59-2.57,6.61-4.6H82.37
	c-1.26-0.22-1.33-1.21-0.06-1.33h20.49c2.65,0,5.04-2.22,6.42-4.6H85.38c-1.21-0.18-1.21-1.17,0-1.34h24.04
	c2.4,0,4.61-2.73,5.51-4.59H88.55c-1.32-0.18-1.32-1.34,0-1.4h26.86C117.52,60.45,119.57,58.24,121,55.91z M78.41,107.01
	l12.12-23.98h7.93l4.99,23.98h-7.51l-0.36-2.85h-7.94l-1.26,2.85C86.38,107.01,78.41,107.01,78.41,107.01z M89.64,99.16h5.1
	l-1.32-8.79L89.64,99.16z M62.66,107.01l2.76-18.04h-7.03l1.21-6.06h21.57l-1.21,6.06H73.3l-2.7,18.04H62.66z M30.21,107.01
	l12.14-23.98h7.93l4.99,23.98h-7.45l-0.43-2.85h-7.92l-1.26,2.85C38.21,107.01,30.21,107.01,30.21,107.01z M41.46,99.16h5.1
	l-1.33-8.79L41.46,99.16z M17.24,107.01l4.92-23.98h8.05l-4.92,23.98C25.29,107.01,17.24,107.01,17.24,107.01z"/>
</svg>
